{"title":"The.Hobbit.An.Unexpected.Journey.2012.BRRip.XviD.Ac3.Feel-Free","uid":8226229,"size":2351354644,"categoryP":"video","categoryS":"movies","magnet":"?xt=urn:btih:01afa2e8eb608a31f3df226902d95dc1c3f56af3&amp;dn=The.Hobbit.An.Unexpected.Journey.2012.BRRip.XviD.Ac3.Feel-Free&amp;tr=udp%3A%2F%2Ftracker.openbittorrent.com%3A80&amp;tr=udp%3A%2F%2Fopen.demonii.com%3A1337&amp;tr=udp%3A%2F%2Ftracker.coppersurfer.tk%3A6969&amp;tr=udp%3A%2F%2Fexodus.desync.com%3A6969","seeders":1,"leechers":0,"uploader":"sceneline","files":9,"time":1362604097,"description":"- &lt;a href=&quot;\nhttp://www.Speed.Cd&quot; rel=&quot;nofollow&quot; target=&quot;_NEW&quot;&gt;\nhttp://www.Speed.Cd&lt;/a&gt;\n &lt;a href=&quot;\nhttp://www.Speed.Cd&quot; rel=&quot;nofollow&quot; target=&quot;_NEW&quot;&gt;\nhttp://www.Speed.Cd&lt;/a&gt;       the fast  and The Hottest Private Tracker on the net\n\nPlease Seed back to make the speed Faster!!\n ............ NFO .............\n-[img]http://img600.imageshack.us/img600/7510/402343bas1nu8x.jpg[/img]\n[img]http://i.imgbox.com/ackJsCTM.jpg[/img]\n\n\nGenre:Adventure | Fantasy \nLanguage:English\nIMDb:http://www.imdb.com/title/tt0903624/\nSource:1080p.BluRay.x264-SPARKS Thanks\nEncoder:Tony\n\nFormat                                   : AVI\nFormat/Info                              : Audio Video Interleave\nFormat profile                           : OpenDML\nFile size                                : 2.19 GiB\nDuration                                 : 2h 49mn\nOverall bit rate                         : 1 847 Kbps\n\nVideo\nID                                       : 0\nFormat                                   : MPEG-4 Visual\nFormat profile                           : Advanced Simple@L5\nFormat settings, BVOP                    : 1\nFormat settings, QPel                    : No\nFormat settings, GMC                     : No warppoints\nFormat settings, Matrix                  : Default (H.263)\nCodec ID                                 : XVID\nCodec ID/Hint                            : XviD\nDuration                                 : 2h 49mn\nBit rate                                 : 1 451 Kbps\nWidth                                    : 624 pixels\nHeight                                   : 264 pixels\nDisplay aspect ratio                     : 2.35:1\nFrame rate                               : 23.976 fps\nColor space                              : YUV\nChroma subsampling                       : 4:2:0\nBit depth                                : 8 bits\nScan type                                : Progressive\nCompression mode                         : Lossy\nBits/(Pixel*Frame)                       : 0.367\nStream size                              : 1.72 GiB (79%)\nWriting library                          : XviD 1.2.1 (UTC 2008-12-04)\n\nAudio\nID                                       : 1\nFormat                                   : AC-3\nFormat/Info                              : Audio Coding 3\nMode extension                           : CM (complete main)\nCodec ID                                 : 2000\nDuration                                 : 2h 49mn\nBit rate mode                            : Constant\nBit rate                                 : 384 Kbps\nChannel(s)                               : 6 channels\nChannel positions                        : Front: L C R, Side: L R, LFE\nSampling rate                            : 48.0 KHz\nBit depth                                : 16 bits\nCompression mode                         : Lossy\nStream size                              : 466 MiB (21%)\nAlignment                                : Aligned on interleaves\nInterleave, duration                     : 42 ms (1.00 video frame)\nInterleave, preload duration             : 512 ms\n\n   \nPlot:\n  A younger and more reluctant Hobbit, Bilbo Baggins, sets out on a &quot;unexpected journey&quot; to the Lonely Mountain with a spirited group of Dwarves to reclaim a their stolen mountain home from a dragon named Smaug.\n\nTRAILER:\n\n\nGreets:\n CRYS,INSPiRAL,IMAGINE,LKRG,ADTRG,FXG,3Li,FLAWL3SS,CrEwSaDe,TA,iLLUSiON,EMBER,HOPE,GooN,BBnRG,NOGRP,ETRG,BHRG,iLLUMiNATi,MiSTERE.ViSiON,DTRG SAFCuk009,LU,TheFalcon007,MYSTiC,PrisM,Noir,WBZ,LAP,Rx,Kingdom,SAFCuk009+Fabreezy,HDLiTE,TWiZTED,ETRG.ELEKTRI4KA,MAGNAT,CM8\n                And to all the other p2p grps past and present","torrent":{"xt":"urn:btih:01afa2e8eb608a31f3df226902d95dc1c3f56af3","amp;dn":"The.Hobbit.An.Unexpected.Journey.2012.BRRip.XviD.Ac3.Feel-Free","amp;tr":["udp%3A%2F%2Ftracker.openbittorrent.com%3A80","udp%3A%2F%2Fopen.demonii.com%3A1337","udp%3A%2F%2Ftracker.coppersurfer.tk%3A6969","udp%3A%2F%2Fexodus.desync.com%3A6969"],"infoHash":"01afa2e8eb608a31f3df226902d95dc1c3f56af3","infoHashBuffer":{"type":"Buffer","data":[1,175,162,232,235,96,138,49,243,223,34,105,2,217,93,193,195,245,106,243]},"announce":[],"urlList":[]}}